<svg width="20" height="20" viewBox="0 0 20 20" fill="none" xmlns="http://www.w3.org/2000/svg">
<path d="M14.8595 18.7418C13.387 19.562 11.7246 20 10 20C4.47715 20 0 15.5228 0 10C0 4.47715 4.47715 0 10 0C15.5228 0 20 4.47715 20 10C20 11.7246 19.562 13.387 18.7418 14.8595L19.0947 19.0947L14.8595 18.7418ZM14.3916 16.6958L16.9053 16.9053L16.6958 14.3916L16.8621 14.115C17.603 12.8824 18 11.4715 18 10C18 5.58172 14.4183 2 10 2C5.58172 2 2 5.58172 2 10C2 14.4183 5.58172 18 10 18C11.4715 18 12.8824 17.603 14.115 16.8621L14.3916 16.6958ZM10.0003 14.9983C9.44786 14.9983 9 14.5506 9 13.9983C9 13.4461 9.44786 12.9983 10.0003 12.9983C10.5528 12.9983 11.0007 13.4461 11.0007 13.9983C11.0007 14.5506 10.5528 14.9983 10.0003 14.9983ZM11 12H9V11C9 10.2627 9.38274 9.70048 9.97749 9.22865C10.1564 9.08671 10.2102 9.05108 10.534 8.84581C10.8225 8.66287 11 8.34732 11 8C11 7.44772 10.5523 7 10 7C9.44772 7 9 7.44772 9 8H7C7 6.34315 8.34315 5 10 5C11.6569 5 13 6.34315 13 8C13 9.03956 12.4661 9.98899 11.6048 10.535C11.3517 10.6954 11.3207 10.716 11.2205 10.7955C11.0563 10.9257 11 11.0084 11 11V12Z" fill="#6D747A"/>
</svg>
