<svg width="15" height="16" viewBox="0 0 15 16" fill="none" xmlns="http://www.w3.org/2000/svg">
<path fill-rule="evenodd" clip-rule="evenodd" d="M10.6141 0.892043C10.4969 0.774832 10.3379 0.708984 10.1721 0.708984C10.0064 0.708984 9.84741 0.774832 9.7302 0.892043L2.06988 8.55237C1.99136 8.63089 1.93517 8.72891 1.90711 8.83636L1.07378 12.0267C1.0177 12.2414 1.07965 12.4697 1.23655 12.6266C1.39344 12.7835 1.62176 12.8455 1.83644 12.7894L5.0268 11.956C5.13424 11.928 5.23226 11.8718 5.31079 11.7933L12.9711 4.13295C13.2152 3.88887 13.2152 3.49314 12.9711 3.24907L10.6141 0.892043ZM3.07368 9.31634L10.1721 2.21787L11.6453 3.69101L4.54681 10.7895L2.55284 11.3103L3.07368 9.31634Z" fill="#6D747A"/>
<path d="M1.33331 14.0423C0.988135 14.0423 0.708313 14.3221 0.708313 14.6673C0.708313 15.0125 0.988135 15.2923 1.33331 15.2923H13.8333C14.1785 15.2923 14.4583 15.0125 14.4583 14.6673C14.4583 14.3221 14.1785 14.0423 13.8333 14.0423H1.33331Z" fill="#6D747A"/>
</svg>
