<svg width="28" height="28" viewBox="0 0 28 28" fill="none" xmlns="http://www.w3.org/2000/svg">
<path d="M3.5 6.125V20.125C3.5 20.5891 3.68437 21.0342 4.01256 21.3624C4.34075 21.6906 4.78587 21.875 5.25 21.875H22.75C23.2141 21.875 23.6592 21.6906 23.9874 21.3624C24.3156 21.0342 24.5 20.5891 24.5 20.125V6.125H3.5ZM3.5 4.375H24.5C24.9641 4.375 25.4092 4.55937 25.7374 4.88756C26.0656 5.21575 26.25 5.66087 26.25 6.125V20.125C26.25 21.0533 25.8813 21.9435 25.2249 22.5999C24.5685 23.2563 23.6783 23.625 22.75 23.625H5.25C4.32174 23.625 3.4315 23.2563 2.77513 22.5999C2.11875 21.9435 1.75 21.0533 1.75 20.125V6.125C1.75 5.66087 1.93437 5.21575 2.26256 4.88756C2.59075 4.55937 3.03587 4.375 3.5 4.375Z" fill="#6D747A"/>
<path d="M24.7188 6.125L17.9515 13.86C17.4587 14.4233 16.8512 14.8748 16.1697 15.1841C15.4882 15.4934 14.7484 15.6534 14 15.6534C13.2516 15.6534 12.5118 15.4934 11.8303 15.1841C11.1488 14.8748 10.5413 14.4233 10.0485 13.86L3.28125 6.125H24.7188ZM5.607 6.125L11.3645 12.7068C11.693 13.0824 12.098 13.3834 12.5524 13.5897C13.0068 13.796 13.5001 13.9027 13.9991 13.9027C14.4981 13.9027 14.9914 13.796 15.4458 13.5897C15.9002 13.3834 16.3052 13.0824 16.6337 12.7068L22.393 6.125H5.607Z" fill="#6D747A"/>
</svg>
