<svg width="21" height="21" viewBox="0 0 21 21" fill="none" xmlns="http://www.w3.org/2000/svg">
<path d="M18.8976 11.6594C18.7373 11.4769 18.6489 11.2423 18.6489 10.9994C18.6489 10.7565 18.7373 10.5219 18.8976 10.3394L20.1776 8.89941C20.3187 8.74208 20.4062 8.54411 20.4278 8.33391C20.4494 8.12372 20.4038 7.91209 20.2976 7.72941L18.2976 4.26941C18.1925 4.08693 18.0325 3.94228 17.8404 3.85609C17.6482 3.7699 17.4338 3.74657 17.2276 3.78941L15.3476 4.16941C15.1084 4.21884 14.8594 4.179 14.6475 4.05741C14.4356 3.93582 14.2756 3.74089 14.1976 3.50941L13.5876 1.67941C13.5205 1.48079 13.3927 1.30827 13.2222 1.18625C13.0518 1.06423 12.8472 0.998866 12.6376 0.999407H8.63761C8.41954 0.988025 8.20374 1.04833 8.02317 1.17112C7.8426 1.29391 7.70719 1.47243 7.63761 1.67941L7.07761 3.50941C6.99961 3.74089 6.83958 3.93582 6.62772 4.05741C6.41586 4.179 6.16682 4.21884 5.92761 4.16941L3.99761 3.78941C3.80216 3.76179 3.60291 3.79263 3.42495 3.87805C3.247 3.96346 3.09831 4.09964 2.99761 4.26941L0.997607 7.72941C0.888768 7.91006 0.83983 8.12049 0.85779 8.33063C0.875751 8.54077 0.95969 8.73985 1.09761 8.89941L2.36761 10.3394C2.52793 10.5219 2.61634 10.7565 2.61634 10.9994C2.61634 11.2423 2.52793 11.4769 2.36761 11.6594L1.09761 13.0994C0.95969 13.259 0.875751 13.458 0.85779 13.6682C0.83983 13.8783 0.888768 14.0888 0.997607 14.2694L2.99761 17.7294C3.1027 17.9119 3.26273 18.0565 3.45486 18.1427C3.64699 18.2289 3.86143 18.2523 4.06761 18.2094L5.94761 17.8294C6.18682 17.78 6.43586 17.8198 6.64772 17.9414C6.85958 18.063 7.01961 18.2579 7.09761 18.4894L7.70761 20.3194C7.77719 20.5264 7.9126 20.7049 8.09317 20.8277C8.27374 20.9505 8.48954 21.0108 8.70761 20.9994H12.7076C12.9172 21 13.1218 20.9346 13.2922 20.8126C13.4627 20.6905 13.5905 20.518 13.6576 20.3194L14.2676 18.4894C14.3456 18.2579 14.5056 18.063 14.7175 17.9414C14.9294 17.8198 15.1784 17.78 15.4176 17.8294L17.2976 18.2094C17.5038 18.2523 17.7182 18.2289 17.9104 18.1427C18.1025 18.0565 18.2625 17.9119 18.3676 17.7294L20.3676 14.2694C20.4738 14.0867 20.5194 13.8751 20.4978 13.6649C20.4762 13.4547 20.3887 13.2567 20.2476 13.0994L18.8976 11.6594ZM17.4076 12.9994L18.2076 13.8994L16.9276 16.1194L15.7476 15.8794C15.0274 15.7322 14.2782 15.8545 13.6422 16.2232C13.0062 16.5919 12.5278 17.1812 12.2976 17.8794L11.9176 18.9994H9.35761L8.99761 17.8594C8.76746 17.1613 8.28899 16.5719 7.65301 16.2032C7.01704 15.8345 6.26783 15.7122 5.54761 15.8594L4.36761 16.0994L3.06761 13.8894L3.86761 12.9894C4.35956 12.4394 4.63154 11.7273 4.63154 10.9894C4.63154 10.2515 4.35956 9.53943 3.86761 8.98941L3.06761 8.08941L4.34761 5.88941L5.52761 6.12941C6.24783 6.27663 6.99703 6.15429 7.63301 5.78561C8.26899 5.41692 8.74746 4.82757 8.97761 4.12941L9.35761 2.99941H11.9176L12.2976 4.13941C12.5278 4.83757 13.0062 5.42692 13.6422 5.79561C14.2782 6.16429 15.0274 6.28663 15.7476 6.13941L16.9276 5.89941L18.2076 8.11941L17.4076 9.01941C16.9212 9.56817 16.6526 10.2761 16.6526 11.0094C16.6526 11.7427 16.9212 12.4506 17.4076 12.9994ZM10.6376 6.99941C9.84648 6.99941 9.07312 7.234 8.41533 7.67353C7.75753 8.11306 7.24484 8.73777 6.94209 9.46867C6.63934 10.1996 6.56012 11.0038 6.71447 11.7798C6.86881 12.5557 7.24977 13.2684 7.80918 13.8278C8.36859 14.3872 9.08132 14.7682 9.85725 14.9226C10.6332 15.0769 11.4374 14.9977 12.1683 14.6949C12.8992 14.3922 13.524 13.8795 13.9635 13.2217C14.403 12.5639 14.6376 11.7905 14.6376 10.9994C14.6376 9.93854 14.2162 8.92113 13.466 8.17098C12.7159 7.42083 11.6985 6.99941 10.6376 6.99941ZM10.6376 12.9994C10.242 12.9994 9.85536 12.8821 9.52647 12.6623C9.19757 12.4426 8.94122 12.1302 8.78985 11.7648C8.63847 11.3993 8.59887 10.9972 8.67604 10.6092C8.75321 10.2213 8.94369 9.8649 9.22339 9.58519C9.5031 9.30549 9.85946 9.11501 10.2474 9.03784C10.6354 8.96067 11.0375 9.00027 11.403 9.15165C11.7684 9.30302 12.0808 9.55937 12.3005 9.88827C12.5203 10.2172 12.6376 10.6038 12.6376 10.9994C12.6376 11.5298 12.4269 12.0385 12.0518 12.4136C11.6767 12.7887 11.168 12.9994 10.6376 12.9994Z" fill="#6D747A"/>
</svg>
