<svg width="24" height="22" viewBox="0 0 24 22" fill="none" xmlns="http://www.w3.org/2000/svg">
<path d="M22.7485 9.45229V8.52536C22.7485 6.83035 21.5853 5.40552 20.0165 4.99726L20.0136 3.46896C20.0136 1.97745 18.7999 0.763672 17.3077 0.763672H17.1646L4.50094 4.69217C4.21252 4.70884 3.93888 4.77552 3.6819 4.87585H3.64888C1.63714 4.87585 0 6.51299 0 8.52536V17.5851C0 19.5972 1.63682 21.2346 3.64888 21.2346H19.0996C21.1113 21.2346 22.7485 19.5975 22.7485 17.5851V16.3802C23.4791 16.0974 24 15.3891 24 14.5593V11.2725C23.9997 10.4434 23.4791 9.73505 22.7485 9.45229ZM22.1125 14.559C22.1125 14.5961 22.0832 14.6254 22.0461 14.6254H16.9378C16.9007 14.6254 16.8718 14.5961 16.8718 14.559V11.2725C16.8718 11.2363 16.9013 11.2067 16.9378 11.2067H22.0461C22.0826 11.2067 22.1125 11.2363 22.1125 11.2725V14.559ZM17.4244 2.65935C17.821 2.71597 18.1264 3.05755 18.1264 3.47053L18.129 4.87617H10.2786L17.4244 2.65935ZM19.0996 19.3471H3.64919C2.67635 19.3471 1.8875 18.558 1.8875 17.5848V8.52536C1.8875 7.55189 2.67635 6.76304 3.64919 6.76304H19.0996C20.0728 6.76304 20.8613 7.55189 20.8613 8.52536V9.31955H16.9378C15.8609 9.31955 14.9846 10.1955 14.9846 11.2725V14.559C14.9846 15.6363 15.8609 16.5126 16.9378 16.5126H20.8613V17.5851C20.8613 18.558 20.0728 19.3471 19.0996 19.3471Z" fill="#6D747A"/>
</svg>
