<svg width="48" height="24" viewBox="0 0 48 24" fill="none" xmlns="http://www.w3.org/2000/svg">
<g clip-path="url(#clip0_276_14212)">
<path d="M38.6902 6.70978C39.0802 7.09978 39.0802 7.72978 38.6902 8.11978L34.8102 11.9998L38.6902 15.8798C39.0802 16.2698 39.0802 16.8998 38.6902 17.2898C38.3002 17.6798 37.6702 17.6798 37.2802 17.2898L32.6902 12.6998C32.3002 12.3098 32.3002 11.6798 32.6902 11.2898L37.2802 6.69978C37.6602 6.31978 38.3002 6.31978 38.6902 6.70978Z" fill="#6D747A"/>
</g>
<g clip-path="url(#clip1_276_14212)">
<path d="M30.6902 6.70978C31.0802 7.09978 31.0802 7.72978 30.6902 8.11978L26.8102 11.9998L30.6902 15.8798C31.0802 16.2698 31.0802 16.8998 30.6902 17.2898C30.3002 17.6798 29.6702 17.6798 29.2802 17.2898L24.6902 12.6998C24.3002 12.3098 24.3002 11.6798 24.6902 11.2898L29.2802 6.69978C29.6602 6.31978 30.3002 6.31978 30.6902 6.70978Z" fill="#6D747A"/>
</g>
<g clip-path="url(#clip2_276_14212)">
<path d="M22.6902 6.70978C23.0802 7.09978 23.0802 7.72978 22.6902 8.11978L18.8102 11.9998L22.6902 15.8798C23.0802 16.2698 23.0802 16.8998 22.6902 17.2898C22.3002 17.6798 21.6702 17.6798 21.2802 17.2898L16.6902 12.6998C16.3002 12.3098 16.3002 11.6798 16.6902 11.2898L21.2802 6.69978C21.6602 6.31978 22.3002 6.31978 22.6902 6.70978Z" fill="#6D747A"/>
</g>
<g clip-path="url(#clip3_276_14212)">
<path d="M14.6902 6.70978C15.0802 7.09978 15.0802 7.72978 14.6902 8.11978L10.8102 11.9998L14.6902 15.8798C15.0802 16.2698 15.0802 16.8998 14.6902 17.2898C14.3002 17.6798 13.6702 17.6798 13.2802 17.2898L8.69016 12.6998C8.30016 12.3098 8.30016 11.6798 8.69016 11.2898L13.2802 6.69978C13.6602 6.31978 14.3002 6.31978 14.6902 6.70978Z" fill="#6D747A"/>
</g>
<defs>
<clipPath id="clip0_276_14212">
<rect width="24" height="24" fill="white" transform="matrix(-1 0 0 1 48 0)"/>
</clipPath>
<clipPath id="clip1_276_14212">
<rect width="24" height="24" fill="white" transform="matrix(-1 0 0 1 40 0)"/>
</clipPath>
<clipPath id="clip2_276_14212">
<rect width="24" height="24" fill="white" transform="matrix(-1 0 0 1 32 0)"/>
</clipPath>
<clipPath id="clip3_276_14212">
<rect width="24" height="24" fill="white" transform="matrix(-1 0 0 1 24 0)"/>
</clipPath>
</defs>
</svg>
