<svg width="24" height="24" viewBox="0 0 24 24" fill="none" xmlns="http://www.w3.org/2000/svg">
<g clip-path="url(#clip0_276_14645)">
<path d="M23.7728 11.4478L21.7362 9.39114L22.4716 6.59173C22.581 6.17543 22.3346 5.74873 21.9194 5.63534L19.1274 4.87254L18.3646 2.08048C18.2512 1.66531 17.8245 1.41894 17.4082 1.5283L14.6088 2.26377L12.5522 0.227144C12.2463 -0.0757147 11.7536 -0.0757147 11.4478 0.227144L9.39114 2.26377L6.59173 1.52834C6.17534 1.41899 5.74877 1.66536 5.63534 2.08053L4.87254 4.87259L2.08048 5.63538C1.66531 5.74882 1.41894 6.17552 1.5283 6.59177L2.26372 9.39119L0.227144 11.4478C-0.0757147 11.7536 -0.0757147 12.2463 0.227144 12.5522L2.26377 14.6088L1.52834 17.4082C1.41899 17.8245 1.66536 18.2512 2.08053 18.3646L4.87259 19.1274L5.63538 21.9194C5.74882 22.3346 6.17543 22.581 6.59177 22.4716L9.39119 21.7362L11.4478 23.7728C11.6007 23.9243 11.8004 24 12 24C12.1997 24 12.3993 23.9243 12.5522 23.7728L14.6088 21.7362L17.4083 22.4716C17.8246 22.5809 18.2512 22.3346 18.3646 21.9194L19.1274 19.1274L21.9195 18.3646C22.3347 18.2512 22.581 17.8245 22.4717 17.4082L21.7363 14.6088L23.7728 12.5522C24.0756 12.2463 24.0756 11.7536 23.7728 11.4478ZM20.3058 13.8227C20.1105 14.02 20.0339 14.3057 20.1044 14.5743L20.7561 17.0554L18.2816 17.7314C18.0138 17.8045 17.8045 18.0138 17.7314 18.2816L17.0553 20.7562L14.5742 20.1044C14.3056 20.0339 14.0199 20.1104 13.8226 20.3058L12 22.1107L10.1772 20.3058C10.0284 20.1584 9.82924 20.0787 9.625 20.0787C9.55858 20.0787 9.4916 20.0872 9.42569 20.1045L6.9446 20.7562L6.26857 18.2817C6.19545 18.0139 5.9862 17.8046 5.71835 17.7315L3.24383 17.0554L3.89557 14.5743C3.96612 14.3058 3.88953 14.02 3.69415 13.8227L1.88923 12L3.69415 10.1773C3.88953 9.97999 3.96612 9.69424 3.89557 9.42569L3.24383 6.94451L5.71835 6.26848C5.98615 6.19535 6.1954 5.9861 6.26857 5.71826L6.9446 3.24373L9.42569 3.89548C9.69424 3.96607 9.97999 3.88943 10.1773 3.69406L12 1.88914L13.8227 3.69406C14.02 3.88934 14.3057 3.96612 14.5743 3.89548L17.0554 3.24373L17.7314 5.71826C17.8045 5.98605 18.0138 6.1953 18.2816 6.26848L20.7562 6.94451L20.1044 9.4256C20.0339 9.6941 20.1104 9.97989 20.3058 10.1772L22.1107 11.9999L20.3058 13.8227Z" fill="#6D747A"/>
<path d="M8.86064 6.24414C7.41825 6.24414 6.24478 7.41761 6.24478 8.85999C6.24478 10.3024 7.41825 11.4758 8.86064 11.4758C10.303 11.4758 11.4765 10.3024 11.4765 8.85999C11.4765 7.41761 10.303 6.24414 8.86064 6.24414ZM8.86064 9.90634C8.2837 9.90634 7.81429 9.43688 7.81429 8.85999C7.81429 8.28306 8.2837 7.81365 8.86064 7.81365C9.43757 7.81365 9.90698 8.28306 9.90698 8.85999C9.90698 9.43693 9.43757 9.90634 8.86064 9.90634Z" fill="#6D747A"/>
<path d="M15.1367 12.5234C13.6943 12.5234 12.5208 13.6969 12.5208 15.1393C12.5208 16.5817 13.6943 17.7551 15.1367 17.7551C16.5791 17.7551 17.7526 16.5817 17.7526 15.1393C17.7526 13.6969 16.5791 12.5234 15.1367 12.5234ZM15.1367 16.1856C14.5598 16.1856 14.0904 15.7162 14.0904 15.1393C14.0904 14.5624 14.5598 14.093 15.1367 14.093C15.7136 14.093 16.183 14.5624 16.183 15.1393C16.183 15.7163 15.7136 16.1856 15.1367 16.1856Z" fill="#6D747A"/>
<path d="M16.2161 7.78259C15.9097 7.47612 15.4128 7.47612 15.1063 7.78259L7.78194 15.107C7.47548 15.4134 7.47548 15.9103 7.78194 16.2168C7.93518 16.37 8.13604 16.4467 8.3368 16.4467C8.53757 16.4467 8.73847 16.3701 8.89166 16.2168L16.2161 8.8924C16.5226 8.58593 16.5226 8.08905 16.2161 7.78259Z" fill="#6D747A"/>
</g>
<defs>
<clipPath id="clip0_276_14645">
<rect width="24" height="24" fill="white"/>
</clipPath>
</defs>
</svg>
