<svg width="21" height="24" viewBox="0 0 21 24" fill="none" xmlns="http://www.w3.org/2000/svg">
<path d="M15.8024 13.7438H11.8743V10.4906C11.8743 9.9375 11.4289 9.49219 10.8758 9.49219C10.3227 9.49219 9.87739 9.9375 9.87739 10.4906V13.7438H5.94926C5.54614 13.7203 4.8477 14.0859 4.96489 14.9203L6.37114 22.6641C6.45551 23.1375 6.8727 23.4844 7.35551 23.4844H14.3961C14.879 23.4844 15.2915 23.1375 15.3805 22.6641L16.7868 14.9203C16.8758 14.5922 16.6508 13.7625 15.8024 13.7438ZM13.5618 21.4875H8.18989L7.14457 15.7406H14.6071L13.5618 21.4875Z" fill="#6D747A"/>
<path d="M9.8815 6.45C9.72681 6.25313 9.62369 5.94844 9.56275 5.53125L8.77994 5.67656C8.80806 6.07969 8.91119 6.42187 9.08931 6.69844C9.26744 6.97969 9.47837 7.18125 9.72212 7.30313C9.96587 7.42969 10.2799 7.51406 10.669 7.56562V8.34375H11.1284V7.55625C11.6721 7.52812 12.1174 7.33594 12.4596 6.975C12.8018 6.61406 12.9752 6.16406 12.9752 5.625C12.9752 5.38125 12.9331 5.15156 12.8534 4.94063C12.769 4.72969 12.6518 4.54688 12.5018 4.39688C12.3471 4.24219 12.1503 4.11562 11.9112 4.00781C11.7846 3.95156 11.5268 3.87656 11.1331 3.77812V1.54219C11.3862 1.59375 11.5877 1.70156 11.7331 1.86562C11.8784 2.02969 11.9721 2.26406 12.019 2.56875L12.8206 2.44688C12.7502 1.95469 12.5487 1.56562 12.2065 1.28437C11.9393 1.06406 11.5831 0.928125 11.1284 0.885937V0.515625H10.669V0.885937C10.1534 0.9375 9.76431 1.07812 9.50181 1.30781C9.10806 1.65 8.91587 2.1 8.91587 2.65312C8.91587 2.9625 8.9815 3.24375 9.11744 3.4875C9.25338 3.73125 9.44087 3.92344 9.68931 4.06406C10.0221 4.25156 10.3503 4.37344 10.669 4.43437V6.90937C10.3643 6.87656 10.1018 6.72656 9.8815 6.45ZM11.1237 4.54219C11.5409 4.67812 11.8221 4.83281 11.9581 5.00156C12.0987 5.175 12.169 5.4 12.169 5.68125C12.169 6.01406 12.0706 6.29063 11.8737 6.51562C11.6768 6.74062 11.4284 6.87187 11.1237 6.90937V4.54219ZM9.91431 3.25781C9.76431 3.07969 9.694 2.85938 9.694 2.59219C9.694 2.325 9.78306 2.09063 9.9565 1.89844C10.1299 1.70156 10.369 1.57969 10.6737 1.5375V3.68906C10.3127 3.58125 10.0643 3.43594 9.91431 3.25781Z" fill="#6D747A"/>
<path d="M19.7534 4.71094C16.3643 4.71094 13.6081 7.46719 13.6081 10.8563C13.6081 11.4094 14.0534 11.8547 14.6065 11.8547C17.9956 11.8547 20.7518 9.09844 20.7518 5.70938C20.7518 5.16094 20.3065 4.71094 19.7534 4.71094ZM15.7737 9.69375C16.1674 8.34375 17.2362 7.275 18.5909 6.87656C18.1924 8.22656 17.1237 9.29531 15.7737 9.69375Z" fill="#6D747A"/>
<path d="M7.15338 11.8547C7.7065 11.8547 8.15181 11.4094 8.15181 10.8563C8.15181 10.8047 8.14712 10.7531 8.14244 10.7016C8.05806 7.38281 5.33463 4.71094 1.99713 4.71094C1.444 4.71094 0.998688 5.15625 0.998688 5.70938C0.998688 9.09844 3.75494 11.8547 7.144 11.8547C7.144 11.8547 7.14869 11.8547 7.15338 11.8547ZM3.15963 6.87656C4.50963 7.27031 5.57837 8.33906 5.97681 9.69375C4.62681 9.29531 3.55806 8.22656 3.15963 6.87656Z" fill="#6D747A"/>
</svg>
