<svg width="24" height="23" viewBox="0 0 24 23" fill="none" xmlns="http://www.w3.org/2000/svg">
<path d="M21.9 5.89934H17.9625C18.5294 5.18348 18.803 4.27895 18.7281 3.36891C18.6531 2.45887 18.2351 1.61132 17.5587 0.997865C16.8824 0.384414 15.9982 0.0509079 15.0851 0.0648747C14.1721 0.0788415 13.2985 0.439238 12.6412 1.07309C12.3761 1.34149 12.1592 1.65355 12 1.99559C11.8408 1.65355 11.6239 1.34149 11.3587 1.07309C10.7014 0.439238 9.82785 0.0788415 8.91483 0.0648747C8.00182 0.0509079 7.11761 0.384414 6.44124 0.997865C5.76487 1.61132 5.34689 2.45887 5.27192 3.36891C5.19696 4.27895 5.47062 5.18348 6.03749 5.89934H2.09999C1.6226 5.89934 1.16476 6.08898 0.827195 6.42655C0.48963 6.76411 0.299988 7.22195 0.299988 7.69934V11.2993C0.299988 11.7767 0.48963 12.2346 0.827195 12.5721C1.16476 12.9097 1.6226 13.0993 2.09999 13.0993V20.2993C2.09999 20.7767 2.28963 21.2346 2.6272 21.5721C2.96476 21.9097 3.4226 22.0993 3.89999 22.0993H20.1C20.5774 22.0993 21.0352 21.9097 21.3728 21.5721C21.7103 21.2346 21.9 20.7767 21.9 20.2993V13.0993C22.3774 13.0993 22.8352 12.9097 23.1728 12.5721C23.5103 12.2346 23.7 11.7767 23.7 11.2993V7.69934C23.7 7.22195 23.5103 6.76411 23.1728 6.42655C22.8352 6.08898 22.3774 5.89934 21.9 5.89934ZM13.9125 2.34434C14.0762 2.16364 14.2749 2.0181 14.4966 1.91653C14.7183 1.81497 14.9583 1.7595 15.2021 1.7535C15.4458 1.7475 15.6883 1.79108 15.9147 1.88162C16.1411 1.97215 16.3467 2.10774 16.5192 2.28016C16.6916 2.45258 16.8272 2.65823 16.9177 2.88464C17.0082 3.11105 17.0518 3.35349 17.0458 3.59726C17.0398 3.84102 16.9844 4.08103 16.8828 4.3027C16.7812 4.52438 16.6357 4.72311 16.455 4.88684C15.9037 5.44934 14.295 5.75309 12.9337 5.86559C13.0462 4.50434 13.35 2.89559 13.9125 2.34434ZM7.54499 2.34434C7.88386 2.01044 8.3405 1.82326 8.81624 1.82326C9.29198 1.82326 9.74861 2.01044 10.0875 2.34434C10.65 2.89559 10.9537 4.50434 11.0662 5.86559C9.70499 5.75309 8.09624 5.44934 7.54499 4.88684C7.21108 4.54797 7.02391 4.09133 7.02391 3.61559C7.02391 3.13985 7.21108 2.68321 7.54499 2.34434ZM2.09999 7.69934H11.1V11.2993H2.09999V7.69934ZM3.89999 13.0993H11.1V20.2993H3.89999V13.0993ZM20.1 20.2993H12.9V13.0993H20.1V20.2993ZM21.9 11.2993H12.9V7.69934H21.9V11.2993Z" fill="#6D747A"/>
</svg>
